<mxfile host="app.diagrams.net" agent="Mozilla/5.0 (Windows NT 10.0; Win64; x64) AppleWebKit/537.36 (KHTML, like Gecko) Chrome/127.0.0.0 Safari/537.36" version="24.7.6">
  <diagram name="Page-1" id="YLKkbuRHNSi45PAIOOmi">
    <mxGraphModel dx="1594" dy="-1554" grid="0" gridSize="10" guides="1" tooltips="1" connect="1" arrows="1" fold="1" page="0" pageScale="1" pageWidth="850" pageHeight="1100" math="0" shadow="0">
      <root>
        <mxCell id="0" />
        <mxCell id="1" parent="0" />
        <mxCell id="FVXrQ5UTmjQ1m_fRflTd-5" value="" style="edgeStyle=orthogonalEdgeStyle;rounded=0;orthogonalLoop=1;jettySize=auto;html=1;" parent="1" source="FVXrQ5UTmjQ1m_fRflTd-2" target="FVXrQ5UTmjQ1m_fRflTd-3" edge="1">
          <mxGeometry relative="1" as="geometry" />
        </mxCell>
        <mxCell id="FVXrQ5UTmjQ1m_fRflTd-2" value="&lt;div style=&quot;color: rgb(204, 204, 204); background-color: rgb(31, 31, 31); font-family: Consolas, &amp;quot;Courier New&amp;quot;, monospace; font-size: 14px; line-height: 19px; white-space: pre;&quot;&gt;&lt;span style=&quot;color: #c586c0;&quot;&gt;FROM&lt;/span&gt; &lt;span style=&quot;color: #4ec9b0;&quot;&gt;nginx&lt;/span&gt;&lt;/div&gt;" style="rounded=0;whiteSpace=wrap;html=1;" parent="1" vertex="1">
          <mxGeometry x="-320" y="2480" width="180" height="40" as="geometry" />
        </mxCell>
        <mxCell id="FVXrQ5UTmjQ1m_fRflTd-7" style="edgeStyle=orthogonalEdgeStyle;rounded=0;orthogonalLoop=1;jettySize=auto;html=1;entryX=0.5;entryY=1;entryDx=0;entryDy=0;" parent="1" source="FVXrQ5UTmjQ1m_fRflTd-3" target="FVXrQ5UTmjQ1m_fRflTd-6" edge="1">
          <mxGeometry relative="1" as="geometry" />
        </mxCell>
        <mxCell id="FVXrQ5UTmjQ1m_fRflTd-3" value="" style="shape=image;html=1;verticalAlign=top;verticalLabelPosition=bottom;labelBackgroundColor=#ffffff;imageAspect=0;aspect=fixed;image=https://cdn1.iconfinder.com/data/icons/unicons-line-vol-3/24/docker-128.png" parent="1" vertex="1">
          <mxGeometry x="-265" y="2370" width="70" height="70" as="geometry" />
        </mxCell>
        <mxCell id="FVXrQ5UTmjQ1m_fRflTd-10" style="edgeStyle=orthogonalEdgeStyle;rounded=0;orthogonalLoop=1;jettySize=auto;html=1;" parent="1" source="FVXrQ5UTmjQ1m_fRflTd-6" edge="1">
          <mxGeometry relative="1" as="geometry">
            <mxPoint x="-50" y="2500" as="targetPoint" />
            <Array as="points">
              <mxPoint x="-49" y="2310" />
            </Array>
          </mxGeometry>
        </mxCell>
        <mxCell id="FVXrQ5UTmjQ1m_fRflTd-6" value="&lt;div style=&quot;color: rgb(204, 204, 204); background-color: rgb(31, 31, 31); font-family: Consolas, &amp;quot;Courier New&amp;quot;, monospace; font-size: 14px; line-height: 19px; white-space: pre;&quot;&gt;&lt;span style=&quot;white-space: pre;&quot;&gt;&#x9;&lt;/span&gt;&lt;span style=&quot;white-space: pre;&quot;&gt;&#x9;&lt;/span&gt;&lt;span style=&quot;white-space: pre;&quot;&gt;&#x9;&lt;/span&gt;&lt;span style=&quot;white-space: pre;&quot;&gt;&#x9;&lt;/span&gt;&lt;span style=&quot;color: rgb(197, 134, 192);&quot;&gt;RUN&lt;/span&gt; &lt;span style=&quot;color: rgb(156, 220, 254);&quot;&gt;rm&lt;/span&gt; &lt;span style=&quot;color: rgb(156, 220, 254);&quot;&gt;-rf&lt;/span&gt; &lt;span style=&quot;color: rgb(156, 220, 254);&quot;&gt;/usr/share/nginx/html/index.html&lt;/span&gt;&lt;/div&gt;" style="rounded=0;whiteSpace=wrap;html=1;" parent="1" vertex="1">
          <mxGeometry x="-320" y="2290" width="180" height="40" as="geometry" />
        </mxCell>
        <mxCell id="FVXrQ5UTmjQ1m_fRflTd-9" value="" style="rounded=0;whiteSpace=wrap;html=1;" parent="1" vertex="1">
          <mxGeometry x="-46" y="2480" width="120" height="40" as="geometry" />
        </mxCell>
        <mxCell id="FVXrQ5UTmjQ1m_fRflTd-11" value="" style="shape=image;html=1;verticalAlign=top;verticalLabelPosition=bottom;labelBackgroundColor=#ffffff;imageAspect=0;aspect=fixed;image=https://cdn1.iconfinder.com/data/icons/unicons-line-vol-3/24/docker-128.png" parent="1" vertex="1">
          <mxGeometry x="34" y="2380" width="70" height="70" as="geometry" />
        </mxCell>
      </root>
    </mxGraphModel>
  </diagram>
</mxfile>
